<svg width="80" height="40" viewBox="0 0 80 40" fill="none" xmlns="http://www.w3.org/2000/svg">
<path d="M35.24 10H33.34C31.15 10 30 11.15 30 13.33V15.23C30 17.41 31.15 18.56 33.33 18.56H35.23C37.41 18.56 38.56 17.41 38.56 15.23V13.33C38.57 11.15 37.42 10 35.24 10Z" fill="#0D062D"/>
<path opacity="0.4" d="M46.6699 10H44.7699C42.5899 10 41.4399 11.15 41.4399 13.33V15.23C41.4399 17.41 42.5899 18.56 44.7699 18.56H46.6699C48.8499 18.56 49.9999 17.41 49.9999 15.23V13.33C49.9999 11.15 48.8499 10 46.6699 10Z" fill="#0D062D"/>
<path d="M46.6699 21.4301H44.7699C42.5899 21.4301 41.4399 22.5801 41.4399 24.7601V26.6601C41.4399 28.8401 42.5899 29.9901 44.7699 29.9901H46.6699C48.8499 29.9901 49.9999 28.8401 49.9999 26.6601V24.7601C49.9999 22.5801 48.8499 21.4301 46.6699 21.4301Z" fill="#0D062D"/>
<path opacity="0.4" d="M35.24 21.4301H33.34C31.15 21.4301 30 22.5801 30 24.7601V26.6601C30 28.8501 31.15 30.0001 33.33 30.0001H35.23C37.41 30.0001 38.56 28.8501 38.56 26.6701V24.7701C38.57 22.5801 37.42 21.4301 35.24 21.4301Z" fill="#0D062D"/>
<path d="M76 12.0251C76 10.4213 77.4095 9.18271 79 9.38889V30C77.3431 30 76 28.6569 76 27L76 12.0251Z" fill="#0D062D"/>
</svg>
