<svg width="46" height="92" viewBox="0 0 46 92" fill="none" xmlns="http://www.w3.org/2000/svg">
<rect width="46" height="92" rx="23" fill="white"/>
<rect x="8" y="8" width="30" height="30" rx="15" fill="#34CAA5"/>
<g clip-path="url(#clip0_1826_460)">
<path d="M23 27.2188C25.33 27.2188 27.2188 25.33 27.2188 23C27.2188 20.67 25.33 18.7812 23 18.7812C20.67 18.7812 18.7812 20.67 18.7812 23C18.7812 25.33 20.67 27.2188 23 27.2188Z" fill="white"/>
<path d="M23 17.0935C22.5336 17.0935 22.1562 16.7156 22.1562 16.2497V15.4062C22.1562 14.9403 22.5336 14.5625 23 14.5625C23.4664 14.5625 23.8438 14.9403 23.8438 15.4062V16.2497C23.8438 16.7156 23.4664 17.0935 23 17.0935Z" fill="white"/>
<path d="M27.7734 19.0706C27.5576 19.0706 27.3417 18.9882 27.1769 18.8234C26.8473 18.4939 26.8473 17.9596 27.1769 17.6301L27.7734 17.0337C28.103 16.7043 28.637 16.7042 28.9666 17.0338C29.2961 17.3633 29.2961 17.8975 28.9666 18.227L28.37 18.8235C28.2052 18.9882 27.9893 19.0706 27.7734 19.0706Z" fill="white"/>
<path d="M30.5937 23.8438H29.75C29.2836 23.8438 28.9062 23.4659 28.9062 23C28.9062 22.5341 29.2836 22.1562 29.75 22.1562H30.5937C31.0601 22.1562 31.4375 22.5341 31.4375 23C31.4375 23.4659 31.0601 23.8438 30.5937 23.8438Z" fill="white"/>
<path d="M28.37 29.2133C28.1541 29.2133 27.9382 29.131 27.7734 28.9662L27.1769 28.3698C26.8473 28.0403 26.8473 27.5061 27.1769 27.1766C27.5065 26.847 28.0404 26.8469 28.37 27.1765L28.9666 27.7729C29.2961 28.1024 29.2961 28.6366 28.9666 28.9661C28.8018 29.1309 28.5859 29.2133 28.37 29.2133Z" fill="white"/>
<path d="M23 31.4374C22.5336 31.4374 22.1562 31.0596 22.1562 30.5937V29.7502C22.1562 29.2843 22.5336 28.9065 23 28.9065C23.4664 28.9065 23.8438 29.2843 23.8438 29.7502V30.5937C23.8438 31.0596 23.4664 31.4374 23 31.4374Z" fill="white"/>
<path d="M17.6304 29.2134C17.4145 29.2134 17.1986 29.131 17.0338 28.9662C16.7042 28.6367 16.7042 28.1025 17.0338 27.773L17.6304 27.1765C17.96 26.8471 18.4939 26.847 18.8235 27.1766C19.1531 27.5061 19.1531 28.0403 18.8235 28.3698L18.2269 28.9663C18.0621 29.131 17.8463 29.2134 17.6304 29.2134Z" fill="white"/>
<path d="M16.25 23.8438H15.4062C14.9399 23.8438 14.5625 23.4659 14.5625 23C14.5625 22.5341 14.9399 22.1562 15.4062 22.1562H16.25C16.7164 22.1562 17.0938 22.5341 17.0938 23C17.0938 23.4659 16.7164 23.8438 16.25 23.8438Z" fill="white"/>
<path d="M18.2269 19.0706C18.011 19.0706 17.7952 18.9883 17.6304 18.8235L17.0338 18.2271C16.7042 17.8976 16.7042 17.3634 17.0338 17.0339C17.3634 16.7043 17.8973 16.7042 18.2269 17.0338L18.8235 17.6302C19.1531 17.9597 19.1531 18.4939 18.8235 18.8234C18.6587 18.9882 18.4428 19.0706 18.2269 19.0706Z" fill="white"/>
</g>
<path d="M23 58.6875C23.2486 58.6875 23.4871 58.5887 23.6629 58.4129C23.8387 58.2371 23.9375 57.9986 23.9375 57.75V56.8125C23.9375 56.5639 23.8387 56.3254 23.6629 56.1496C23.4871 55.9738 23.2486 55.875 23 55.875C22.7514 55.875 22.5129 55.9738 22.3371 56.1496C22.1613 56.3254 22.0625 56.5639 22.0625 56.8125V57.75C22.0625 57.9986 22.1613 58.2371 22.3371 58.4129C22.5129 58.5887 22.7514 58.6875 23 58.6875Z" fill="#B2ABAB"/>
<path d="M23 79.3125C22.7514 79.3125 22.5129 79.4113 22.3371 79.5871C22.1613 79.7629 22.0625 80.0014 22.0625 80.25V81.1875C22.0625 81.4361 22.1613 81.6746 22.3371 81.8504C22.5129 82.0262 22.7514 82.125 23 82.125C23.2486 82.125 23.4871 82.0262 23.6629 81.8504C23.8387 81.6746 23.9375 81.4361 23.9375 81.1875V80.25C23.9375 80.0014 23.8387 79.7629 23.6629 79.5871C23.4871 79.4113 23.2486 79.3125 23 79.3125Z" fill="#B2ABAB"/>
<path d="M35.1875 68.0625H34.25C34.0014 68.0625 33.7629 68.1613 33.5871 68.3371C33.4113 68.5129 33.3125 68.7514 33.3125 69C33.3125 69.2486 33.4113 69.4871 33.5871 69.6629C33.7629 69.8387 34.0014 69.9375 34.25 69.9375H35.1875C35.4361 69.9375 35.6746 69.8387 35.8504 69.6629C36.0262 69.4871 36.125 69.2486 36.125 69C36.125 68.7514 36.0262 68.5129 35.8504 68.3371C35.6746 68.1613 35.4361 68.0625 35.1875 68.0625Z" fill="#B2ABAB"/>
<path d="M11.75 68.0625H10.8125C10.5639 68.0625 10.3254 68.1613 10.1496 68.3371C9.97377 68.5129 9.875 68.7514 9.875 69C9.875 69.2486 9.97377 69.4871 10.1496 69.6629C10.3254 69.8387 10.5639 69.9375 10.8125 69.9375H11.75C11.9986 69.9375 12.2371 69.8387 12.4129 69.6629C12.5887 69.4871 12.6875 69.2486 12.6875 69C12.6875 68.7514 12.5887 68.5129 12.4129 68.3371C12.2371 68.1613 11.9986 68.0625 11.75 68.0625Z" fill="#B2ABAB"/>
<path d="M30.9549 59.7188L30.2921 60.3816C30.2025 60.4681 30.1311 60.5716 30.082 60.686C30.0328 60.8003 30.007 60.9234 30.0059 61.0478C30.0048 61.1723 30.0285 61.2958 30.0757 61.411C30.1228 61.5262 30.1924 61.6309 30.2804 61.7189C30.3685 61.8069 30.4731 61.8765 30.5884 61.9237C30.7036 61.9708 30.827 61.9945 30.9515 61.9934C31.076 61.9924 31.199 61.9665 31.3134 61.9174C31.4278 61.8682 31.5312 61.7968 31.6177 61.7073L32.2814 61.0454C32.3685 60.9583 32.4376 60.8549 32.4848 60.7411C32.5319 60.6273 32.5562 60.5053 32.5562 60.3821C32.5562 60.2589 32.5319 60.137 32.4848 60.0231C32.4376 59.9093 32.3685 59.8059 32.2814 59.7188C32.1943 59.6317 32.0909 59.5626 31.9771 59.5155C31.8633 59.4684 31.7413 59.4441 31.6182 59.4441C31.495 59.4441 31.373 59.4684 31.2592 59.5155C31.1454 59.5626 31.042 59.6317 30.9549 59.7188Z" fill="#B2ABAB"/>
<path d="M14.3818 76.292L13.7181 76.9548C13.631 77.0419 13.5619 77.1453 13.5148 77.2591C13.4676 77.3729 13.4434 77.4949 13.4434 77.6181C13.4434 77.7413 13.4676 77.8632 13.5148 77.977C13.5619 78.0909 13.631 78.1943 13.7181 78.2814C13.894 78.4573 14.1326 78.5561 14.3814 78.5561C14.5046 78.5561 14.6265 78.5318 14.7403 78.4847C14.8542 78.4376 14.9576 78.3685 15.0447 78.2814L15.7075 77.6185C15.7946 77.5315 15.8637 77.4282 15.9108 77.3144C15.958 77.2007 15.9823 77.0787 15.9824 76.9556C15.9824 76.8325 15.9582 76.7105 15.9111 76.5967C15.864 76.483 15.795 76.3796 15.7079 76.2925C15.6209 76.2054 15.5176 76.1362 15.4038 76.0891C15.2901 76.0419 15.1681 76.0176 15.045 76.0176C14.7963 76.0175 14.5578 76.1162 14.3818 76.292Z" fill="#B2ABAB"/>
<path d="M31.6171 76.292C31.4403 76.1212 31.2035 76.0267 30.9577 76.0288C30.7119 76.031 30.4767 76.1296 30.3029 76.3034C30.1291 76.4772 30.0305 76.7124 30.0284 76.9582C30.0262 77.204 30.1207 77.4408 30.2915 77.6176L30.9543 78.2814C31.1302 78.4573 31.3688 78.5561 31.6176 78.5561C31.8664 78.5561 32.1049 78.4573 32.2809 78.2814C32.4568 78.1054 32.5556 77.8668 32.5556 77.6181C32.5556 77.3693 32.4568 77.1307 32.2809 76.9548L31.6171 76.292Z" fill="#B2ABAB"/>
<path d="M14.3818 61.7082C14.5587 61.879 14.7955 61.9735 15.0413 61.9713C15.2871 61.9692 15.5222 61.8706 15.6961 61.6968C15.8699 61.523 15.9685 61.2878 15.9706 61.042C15.9727 60.7962 15.8782 60.5594 15.7075 60.3826L15.0447 59.7188C14.8687 59.5429 14.6302 59.4441 14.3814 59.4441C14.1326 59.4441 13.894 59.5429 13.7181 59.7188C13.5422 59.8947 13.4434 60.1333 13.4434 60.3821C13.4434 60.6309 13.5422 60.8695 13.7181 61.0454L14.3818 61.7082Z" fill="#B2ABAB"/>
<path d="M31.1567 70.3903C31.0357 70.271 30.8846 70.1867 30.7195 70.1466C30.5543 70.1065 30.3814 70.112 30.2192 70.1625C29.5901 70.3568 28.9351 70.4542 28.2767 70.4513C26.4926 70.4495 24.7821 69.7401 23.5205 68.4787C22.2589 67.2173 21.5493 65.5069 21.5473 63.7228C21.545 63.0647 21.643 62.41 21.8379 61.7813C21.8888 61.6189 21.8945 61.4457 21.8544 61.2802C21.8144 61.1148 21.73 60.9634 21.6104 60.8423C21.4909 60.7212 21.3406 60.6349 21.1757 60.5927C21.0108 60.5505 20.8375 60.554 20.6745 60.6028C19.2513 61.0332 17.964 61.8251 16.9381 62.9012C15.9122 63.9773 15.1827 65.301 14.8208 66.7431C14.4589 68.1851 14.4769 69.6964 14.8731 71.1294C15.2692 72.5624 16.0301 73.8683 17.0814 74.9197C18.1326 75.9711 19.4385 76.732 20.8715 77.1283C22.3045 77.5247 23.8157 77.5428 25.2578 77.181C26.6999 76.8192 28.0236 76.0898 29.0999 75.064C30.1761 74.0382 30.9681 72.751 31.3985 71.3278C31.4473 71.1644 31.4506 70.9907 31.408 70.8255C31.3654 70.6603 31.2785 70.5098 31.1567 70.3903Z" fill="#B2ABAB"/>
<defs>
<clipPath id="clip0_1826_460">
<rect width="16.875" height="16.875" fill="white" transform="translate(14.5625 14.5625)"/>
</clipPath>
</defs>
</svg>
